<?xml version="1.0" encoding="UTF-8" standalone="no"?>
<svg
   width="150"
   height="150"
   viewBox="0 0 150 150"
   aria-hidden="true"
   role="img"
   class="iconify iconify--noto"
   preserveAspectRatio="xMidYMid"
   version="1.1"
   id="svg4"
   sodipodi:docname="estacionamiento.svg"
   inkscape:version="1.2.1 (9c6d41e410, 2022-07-14)"
   xmlns:inkscape="http://www.inkscape.org/namespaces/inkscape"
   xmlns:sodipodi="http://sodipodi.sourceforge.net/DTD/sodipodi-0.dtd"
   xmlns="http://www.w3.org/2000/svg"
   xmlns:svg="http://www.w3.org/2000/svg">
  <defs
     id="defs8" />
  <sodipodi:namedview
     id="namedview6"
     pagecolor="#ffffff"
     bordercolor="#000000"
     borderopacity="0.25"
     inkscape:showpageshadow="2"
     inkscape:pageopacity="0.0"
     inkscape:pagecheckerboard="0"
     inkscape:deskcolor="#d1d1d1"
     showgrid="false"
     inkscape:zoom="4.6238154"
     inkscape:cx="52.770273"
     inkscape:cy="68.5581"
     inkscape:window-width="1920"
     inkscape:window-height="1017"
     inkscape:window-x="1912"
     inkscape:window-y="-8"
     inkscape:window-maximized="1"
     inkscape:current-layer="svg4" />
  <path
     d="m 109.89,43.475 c 1.23,0 2.24,-1 2.24,-2.24 v -16.72 c 0,-1.24 -1.01,-2.24 -2.24,-2.24 H 40.099998 c -1.24,0 -2.24,1 -2.24,2.24 v 100.97 c 0,1.24 1,2.24 2.24,2.24 H 109.9 c 1.23,0 2.24,-1 2.24,-2.24 v -16.72 c 0,-1.24 -1.01,-2.24 -2.24,-2.24 H 64.239998 v -22.05 h 35.12 c 1.230002,0 2.240002,-1 2.240002,-2.24 v -16.72 c 0,-1.24 -1.01,-2.24 -2.240002,-2.24 h -35.12 v -19.8 z"
     fill="#40c0e7"
     id="path2" />
  <rect
     style="opacity:0.7;fill:none;fill-opacity:1;stroke:#40bfe7;stroke-width:12.5772;stroke-linecap:round;stroke-linejoin:round;stroke-miterlimit:4;stroke-dasharray:none;stroke-opacity:1"
     id="rect3487"
     width="137.42276"
     height="137.42276"
     x="6.2886238"
     y="6.2886238" />
</svg>
